<svg width="48" height="48" viewBox="0 0 48 48" fill="none" xmlns="http://www.w3.org/2000/svg">
<g clip-path="url(#clip0_36_1789)">
<path fill-rule="evenodd" clip-rule="evenodd" d="M5.44002 5.44C4.00002 6.85714 3.17716 8.75429 2.74287 11.7257C2.3149 15.8022 2.16218 19.9029 2.28573 24C2.16238 28.0932 2.31511 32.1902 2.74287 36.2629C2.90585 38.6061 3.85638 40.8253 5.44002 42.56C6.86859 44 8.7543 44.8457 11.7257 45.2571C15.8022 45.6851 19.903 45.8378 24 45.7143C28.0933 45.8376 32.1902 45.6849 36.2629 45.2571C38.6061 45.0942 40.8253 44.1436 42.56 42.56C44 41.12 44.8457 39.2457 45.2572 36.2629C45.6854 32.1902 45.8382 28.0933 45.7143 24C45.8379 19.9029 45.6851 15.8022 45.2572 11.7257C45.0942 9.38252 44.1437 7.16328 42.56 5.42857C41.12 3.98857 39.2457 3.14286 36.2743 2.74286C32.1978 2.31489 28.0971 2.16216 24 2.28571C19.903 2.16216 15.8022 2.31489 11.7257 2.74286C8.7543 3.17714 6.85716 4 5.44002 5.44ZM44.1829 3.81714C48 7.63429 48 13.4743 48 24C48 34.5257 48 40.3543 44.1829 44.1829C40.3657 48.0114 34.5143 48 24 48C13.4857 48 7.6343 48 3.81716 44.1829C1.52588e-05 40.3657 1.52588e-05 34.5143 1.52588e-05 24C1.52588e-05 13.4857 1.52588e-05 7.63429 3.81716 3.81714C7.6343 0 13.4743 0 24 0C34.5257 0 40.3543 0 44.1829 3.81714Z" fill="#062F87"/>
<path d="M35.8598 14.0973L31.7971 33.6166C31.497 34.9852 30.6429 35.3331 29.558 34.6836L23.36 30.0444L20.3592 32.9671C20.2128 33.1594 20.0241 33.315 19.8078 33.4217C19.5915 33.5284 19.3536 33.5832 19.1127 33.5818L19.5512 27.1566L31.093 16.5909C31.5893 16.1386 30.9776 15.895 30.3082 16.3473L16.0887 25.4401L9.97157 23.4916C8.64427 23.0741 8.62119 22.1463 10.2486 21.4968L34.2093 12.1257C35.3635 11.6966 36.2868 12.3693 35.9175 14.0973H35.8598Z" fill="#062F87"/>
</g>
<defs>
<clipPath id="clip0_36_1789">
<rect width="48" height="48" fill="white"/>
</clipPath>
</defs>
</svg>
